<svg xmlns="http://www.w3.org/2000/svg" viewBox="0 0 200 200" width="200" height="200"><style>tspan { white-space:pre }.shp0 { fill: #386565 } </style><path fill-rule="evenodd" class="shp0" d="M98.71 189.98C98.71 190.06 98.71 190.08 98.67 190.32C97.54 192 96.8 191.76 95.79 191.97C95.59 192.01 95.4 192.04 95.17 192.14C94.71 192.23 94.24 192.34 93.8 192.44C93.81 192.48 93.83 192.51 93.83 192.55C93.83 192.85 93.73 193.16 93.68 193.47C93.64 193.76 93.65 194.05 93.54 194.34C93.35 194.9 92.83 195.27 92.24 195.27C92.19 195.27 92.13 195.27 92.07 195.25C91.79 195.23 91.53 195.11 91.32 194.94C91.29 194.95 91.25 194.96 91.21 194.97C90.72 195.08 90.23 194.89 89.89 194.53C89.85 194.47 89.78 194.46 89.74 194.4C89.71 194.36 89.7 194.34 89.67 194.29C89.32 194.4 89.04 194.58 88.59 194.59C88.59 194.59 88.58 194.6 88.57 194.6L88.55 194.6C87.83 194.59 87.1 194.44 86.11 194.18C84.55 193.74 84.9 193.71 84.17 193.7C84.03 193.7 83.84 193.71 83.56 193.74C83.22 193.72 82.76 193.82 82.22 193.91C82.13 194.1 82.05 194.3 81.91 194.47C81.63 194.82 81.27 195.11 80.76 195.3C80.5 195.69 80.06 195.94 79.58 195.94L79.55 195.94C78.93 195.94 78.39 195.52 78.22 194.93C78.19 194.81 78.06 194.59 77.99 194.44C77.83 194.06 77.61 193.63 77.29 193.1C77.2 193.08 77.08 193.02 77 193.01L77 193.04C76.99 193.04 76.98 193.04 76.97 193.03L76.97 193.04C76.96 193.04 76.93 193.04 76.89 193.03C76.58 193.06 76.02 193.48 74.62 193.54C74.26 193.54 73.96 193.48 73.63 193.45C72.72 193.37 71.87 193.2 71.14 192.6C70.5 192.07 70.21 191.37 70.04 190.65C69.68 190.55 69.19 190.49 68.57 190.49C67.92 190.49 67.17 190.55 66.41 190.55C66.19 190.55 65.95 190.55 65.71 190.53C65.69 190.53 65.69 190.52 65.67 190.51C65.57 190.51 65.47 190.57 65.37 190.54C65.33 190.54 65.28 190.54 65.21 190.54C65.2 190.53 65.19 190.53 65.14 190.53C65.07 190.54 64.93 190.54 64.74 190.52C64.43 190.46 64.17 190.3 63.98 190.09C63.45 190.35 62.83 190.55 62.1 190.59C61.86 190.59 61.59 190.57 61.32 190.52C60.63 190.39 60.13 189.76 60.19 189.06C60.28 188.29 60.56 187.72 60.89 187.24C61.46 186.4 62.17 185.88 62.55 185.44C62.49 185.27 62.41 185.11 62.41 184.89C62.61 183.64 63.18 183.03 63.76 182.57C64.09 182.3 64.43 182.07 64.71 181.81C65.53 181.25 66.75 180.42 68.14 179.99C68.51 179.89 68.88 179.83 69.26 179.78C69.26 179.48 69.24 179.17 69.24 178.87C69.24 178.3 69.25 177.76 69.25 177.24C69.25 177.1 69.26 176.98 69.27 176.97C69.25 176.83 69.25 176.72 69.25 176.69C69.25 176.14 69.29 175.56 69.32 175C69.47 171 70.11 166.59 71.38 162.98C72.11 160.98 73.28 159.39 74.53 157.94C74.64 157.8 74.75 157.64 74.86 157.5C74.2 157.25 73.54 157 72.88 156.72C67.75 154.61 62.69 151.78 59.2 146.91C57.14 144.04 55.08 141.11 53.3 137.95C52.66 136.69 51.14 135.36 50.06 133.54L50.06 135.58C50.06 137.86 50.01 140.15 49.55 142.48C47.73 151.55 48.3 161.41 46.31 171.1C45.81 173.41 45.89 175.9 44.53 178.63C43.57 180.46 42.24 181.73 41.15 182.92C40.62 183.51 40.12 184.09 39.78 184.7C38.6 186.6 38.46 189.52 36.43 191.28C35.43 192.15 34.02 192.76 31.75 192.8C31.62 192.79 31.52 192.79 31.35 192.79C30.96 192.79 30.65 192.7 30.27 192.68C30.11 193.12 29.75 193.64 29.31 193.8C28.92 194 28.46 194.01 28.06 193.82C28.04 193.84 28.03 193.86 28.01 193.89C27.74 194.25 27.33 194.45 26.9 194.45C26.67 194.45 26.42 194.39 26.2 194.25C25.51 193.83 25.14 193.25 24.92 192.66C24.85 192.48 24.87 192.31 24.83 192.13C23.75 191.98 22.66 191.8 21.6 191.79C21.22 192.13 20.84 192.49 20.4 192.97C19.87 193.52 19.3 194.13 18.66 194.67L17.35 194.95C16.43 194.71 15.91 193.96 15.61 193.17C15.49 192.84 15.29 192.5 15.32 192.19C15.34 191.93 15.43 191.69 15.48 191.45C15.05 191.37 14.63 191.3 14.23 191.16C14.14 191.2 14.08 191.29 13.98 191.3C13.67 191.34 13.29 191.47 12.9 191.64C12.9 191.72 12.9 191.78 12.9 191.85C12.9 191.93 12.9 192.06 12.91 192.17C12.95 192.48 12.81 192.74 12.68 193C12.63 193.09 12.66 193.21 12.59 193.29C12.32 193.59 11.94 193.76 11.54 193.76C11.33 193.76 11.15 193.78 10.93 193.78C10.83 193.78 10.7 193.78 10.54 193.76C9.9 193.72 9.38 193.27 9.25 192.67C9.18 192.29 9.15 191.94 9.15 191.63C9.17 189.94 9.89 188.13 11.49 187.11C11.72 186.31 12.16 185.6 12.87 184.98C18.84 180.04 32.3 175.6 31.94 169.06C31.91 168.75 31.92 168.52 31.92 168.42C31.92 159.48 29.8 151.2 28.97 142.07C28.47 136.66 28.12 130.9 28.12 125.22C28.12 121.87 28.25 118.57 28.52 115.37C29.1 108.92 30.39 102.87 33.24 96.88C34.14 95 35.24 93.31 36.34 91.64C37.83 89.36 39.35 87.16 40.62 84.91C42.07 82.48 44.52 79.05 45.35 76.7C45.29 76.57 45.13 76.44 45.08 76.31C45.02 76.09 45.11 75.89 45.15 75.68C45.19 75.53 45.15 75.36 45.24 75.22C45.02 74.88 44.78 74.55 44.62 74.18L44.64 74.18C44.57 74 44.65 73.83 44.66 73.65C44.57 73.51 44.46 73.42 44.4 73.26C43.83 71.97 43.91 71.09 43.81 70.15C43.44 67.11 42.75 64.06 42.75 60.84C42.75 59.44 42.92 57.99 43.31 56.53C42.63 54.81 41.61 52.53 41.23 50.22C40.62 50.52 40.03 50.86 39.33 51.03C38.77 51.16 38.2 51.21 37.64 51.21C34.93 51.17 32.32 49.91 30.11 48.37C28.77 47.45 27.54 46.45 26.63 45.49C24.23 42.88 21.64 38.78 21.09 35C21.08 34.93 21.05 34.85 21.04 34.78C21.01 34.49 21 34.21 20.99 33.95L20.99 33.91C21.02 32.69 21.34 31.68 21.79 30.8C23.43 27.6 27.22 26.32 29.28 24.86C32.73 22.71 36.94 16.96 42.41 16.1C42.76 16.05 43.09 15.95 43.46 15.94C43.47 15.94 43.48 15.94 43.49 15.94C45.22 15.94 46.97 16.77 48.6 18.2C48.96 17.9 49.3 17.61 49.69 17.36C52.74 15.35 56.66 14.57 59.48 13.9C62.56 13.22 65.82 12.93 69.06 12.75C69.45 12.73 69.84 12.69 70.23 12.67C70.22 12.15 70.19 11.62 70.19 11.06C70.18 10.15 70.29 9.05 70.81 8.02C71.02 7.59 71.29 7.17 71.66 6.78C71.75 6.69 71.85 6.65 71.94 6.57C72.38 6.16 72.86 5.85 73.36 5.62C74.57 5.06 75.89 4.89 77.07 4.89C77.91 4.89 78.73 4.95 79.46 5.04C82.33 5.33 83.75 6.76 85.46 7.6C86.29 8.03 87.03 8.13 87.97 8.15C88.81 8.15 89.81 8.02 91.01 8C91.08 7.99 91.16 7.98 91.24 7.98C91.97 8.02 92.79 8.16 93.63 8.34C97.6 9.22 102.36 11.73 103.22 15.92C103.25 16.27 103.26 16.57 103.26 16.86C103.2 21.26 100.1 25.81 98.07 28.6C96.67 30.33 94.06 32.94 91.11 34.27C91.18 35.05 91.4 35.89 91.68 36.78C92.45 39.25 93.65 42.14 93.77 45.51C93.77 45.64 93.81 45.75 93.81 45.87L93.8 45.87L93.83 46.04C93.77 50.35 92.86 54.48 91.61 58.53C91.48 58.92 91.29 59.28 91.13 59.66C90.45 61.29 89.6 62.83 88.76 64.31C88.9 64.67 88.92 65.07 88.74 65.44C88.35 66.21 88.17 67.02 88.17 67.87C88.15 69.81 89.08 72.06 90.18 73.94C92.24 77.48 93.8 80.94 96.19 83.97C100.32 89.27 107.46 91.14 113.31 95.94C115.56 97.82 117.46 99.86 119.22 101.95C122.26 105.56 124.81 109.4 127.38 113.26C127.71 113.76 128.06 114.27 128.41 114.78C129 115.65 129.56 116.54 130.18 117.41C131.35 119.08 132.44 120.72 133.55 122.37C134.23 123.37 134.92 124.42 135.59 125.37C137.61 128.2 140.24 130.19 143.07 132.73C146.38 135.72 148.48 139.11 149.86 142.81C150.99 145.83 151.67 149.04 151.94 152.47C152.33 157.83 151.71 163.26 153.97 167.21C155.3 169.59 156.87 171.57 158.56 173.72C160.09 175.78 161.16 178.01 162.62 178.72C164.01 179.5 166.1 179.58 168.33 180.1C168.65 180.18 168.94 180.19 169.26 180.3C172.48 181.35 175.07 183.21 177.76 184.23C179.79 185.33 187.26 184.41 190.55 187.26C190.81 187.48 191.1 187.68 191.3 187.95C191.32 187.98 191.3 188.02 191.31 188.05C191.47 188.38 191.52 188.76 191.39 189.12C191.25 189.5 190.93 189.81 190.55 189.95C188.28 190.74 185.59 190.99 183.04 190.99C181.79 190.99 180.61 190.91 179.53 190.83C176.44 190.51 173.36 189.89 170.51 189.89C170.03 189.89 169.61 189.91 169.19 189.95C167.61 190.05 166.07 190.5 164.06 190.57L163.79 190.57C162.44 190.56 161.09 190.39 159.84 190.35C159.69 190.35 159.51 190.32 159.36 190.32C158.47 190.32 157.69 190.45 157.13 190.7C157 190.87 156.88 191.04 156.73 191.19C155.57 192.34 154.08 193.04 152.41 193.4C150.77 193.75 149.04 193.91 147.42 193.94C145.14 193.94 143.03 193.69 141.69 193.54C138.45 193.1 135.1 192.87 131.71 192.73C128.19 192.58 124.64 192.55 121.11 192.55C120.62 192.55 118.06 192.87 115.65 192.87C114.61 192.83 113.43 192.76 112.33 192.52C111.28 192.3 110.37 191.81 109.78 190.93C109.12 191.42 108.35 191.82 107.48 192.13C107.06 192.27 106.67 192.46 106.19 192.52L106.08 192.52C105.42 192.52 104.88 192.08 104.72 191.48C104.63 191.13 104.64 190.87 104.64 190.75C104.65 190.6 104.75 190.48 104.76 190.33C104.83 189.8 105 189.3 105.2 188.81C104.52 189.06 103.71 189.36 102.76 189.58C102.43 189.62 102.11 189.63 101.79 189.64C101.65 189.65 101.5 189.67 101.36 189.67C100.77 189.67 100.33 189.63 99.82 189.59C99.4 189.57 98.94 189.55 98.6 189.53M153.22 182.9C153.33 180.31 154.67 178.63 154.59 177.34L154.59 177.06C154.59 176.29 155.21 175.67 155.99 175.67C156.27 175.67 156.49 175.82 156.71 175.96C156.58 175.8 156.47 175.6 156.35 175.45C154.67 173.31 153 171.2 151.53 168.59C148.72 163.48 149.58 157.61 149.14 152.7C148.8 148.72 147.99 145.24 146.52 142.07C146.5 142.05 146.47 142.07 146.44 142.04C146.34 141.86 146.17 141.76 146.05 141.61C143.41 138.47 136.88 140.92 131.97 136.56C128.74 133.19 129.14 128.61 128.46 125.39C128.22 123.77 127.33 120.23 126.44 117.88C126.04 116.84 125.65 116.02 125.3 115.74L125.32 115.74C125.01 115.44 124.91 115.04 124.93 114.65C120.9 108.58 117.18 102.8 111.51 98.09C106.41 93.74 98.95 91.9 93.99 85.7C91.33 82.32 89.73 78.72 87.75 75.34C87.18 74.34 86.61 73.22 86.18 72.02C86.18 72.03 86.16 72.05 86.16 72.06C86.13 72.09 86.08 72.08 86.04 72.11C86.02 72.19 86.07 72.25 86.03 72.32C84.4 75.56 83.72 81.04 79.05 83.58C78.96 83.8 78.9 84.04 78.7 84.19C77.14 85.35 75.98 87.41 72.84 87.95C71.82 88.09 70.72 88.15 69.62 88.15C67.65 88.15 65.66 87.96 64.02 87.71C62.4 87.45 60.57 86.9 58.79 86.23C58.63 86.23 58.46 86.23 58.3 86.22C57.86 86.19 57.53 85.94 57.29 85.61C55.97 85.04 54.68 84.44 53.63 83.82C52.71 83.2 51.27 82.26 49.82 81.21C49.59 81.25 49.41 81.3 49.37 81.33L49.38 81.33C48.71 81.72 47.85 81.51 47.46 80.85C47.17 80.35 47.3 79.82 47.59 79.38C47.5 79.3 47.41 79.22 47.32 79.14C46.04 81.89 44.06 84.45 43.05 86.3C40.65 90.48 37.66 94.09 35.77 98.08C33.1 103.72 31.87 109.38 31.32 115.62C31.04 118.71 30.93 121.94 30.93 125.22C30.93 130.78 31.26 136.46 31.75 141.81C31.87 143.16 32.06 144.48 32.24 145.81C32.4 147.07 32.54 148.34 32.73 149.58C33.15 152.4 33.56 155.23 33.93 158.09C34.37 161.45 34.71 164.85 34.71 168.42C34.71 168.59 34.71 168.68 34.74 168.88L34.74 168.92C34.24 178.91 19.42 182.55 14.72 187.09C14.48 187.29 14.39 187.41 14.29 187.53C14.33 187.57 14.37 187.6 14.4 187.64C14.49 187.79 14.44 187.96 14.47 188.12C14.69 188.25 14.9 188.4 15.27 188.52C15.65 188.65 16.11 188.74 16.56 188.83C17.14 188 17.88 187.32 18.74 186.89C19.21 186.7 19.71 186.79 20.09 187.09C20.4 187.06 20.71 187.14 20.98 187.31C21.47 187.63 21.7 188.22 21.59 188.78C21.57 188.85 21.55 188.92 21.53 188.99C22.78 189 23.9 189.18 25.03 189.34C25.09 189.17 25.07 188.96 25.15 188.8L25.15 188.81C25.49 188.11 26.33 187.83 27.02 188.18C27.42 188.37 27.68 188.72 27.76 189.11C27.87 188.99 27.97 188.87 28.08 188.75C28.46 188.36 29.02 188.22 29.53 188.4C30.05 188.57 30.39 189.01 30.47 189.57C30.49 189.68 30.48 189.78 30.49 189.89C30.77 189.91 31.06 189.98 31.35 189.98C31.5 189.98 31.71 189.98 31.81 190C36.57 189.81 34.62 188.09 37.36 183.28C38.93 180.72 41.12 179.28 42.04 177.35C43.05 175.39 43.02 173.27 43.56 170.53C45.48 161.33 44.9 151.48 46.8 141.92C46.98 141.03 47.08 140.1 47.15 139.15C47.21 138.3 47.23 137.42 47.24 136.53C47.24 136.21 47.26 135.9 47.26 135.58L47.26 133.45C47.25 133.38 47.24 133.3 47.25 133.21C47.28 132.13 47.68 130.58 48.25 128.98C48.57 128.41 48.75 127.84 48.97 127.31C48.98 127.09 48.99 126.81 48.99 126.61L49 126.61C49 125.84 49.63 125.22 50.39 125.22C50.62 125.22 50.78 125.36 50.97 125.46C51.11 125.41 51.17 125.34 51.33 125.3C51.94 125.3 52.41 125.65 52.63 125.87C53.16 126.43 53.16 127.31 52.62 127.86C52.38 128.09 52.06 128.19 51.75 128.22C51.73 128.53 51.72 128.89 51.72 129.18C51.72 129.99 51.78 130.69 52.01 131.29C52.47 132.78 54.46 134.36 55.76 136.58C57.42 139.56 59.44 142.43 61.48 145.28C65.07 150.34 70.92 153.11 76.89 155.3C77.62 154.52 78.3 153.75 78.88 152.95C81.09 149.94 82.75 144.66 82.73 140.32C82.73 138.57 82.48 137.01 81.97 135.82L81.99 135.82C81.69 135.1 82.01 134.28 82.74 133.98C83.45 133.69 84.28 134.02 84.58 134.73C85.26 136.41 85.54 138.32 85.54 140.32C85.51 145.32 83.79 150.92 81.15 154.6C79.37 156.94 77.34 158.82 75.82 160.82C75.71 161.26 75.44 161.59 75.07 161.89C74.65 162.54 74.27 163.2 74.03 163.92C72.72 167.59 72.06 172.6 72.06 176.69L71.75 176.67L72.06 176.82L72.06 177.24C72.06 177.81 72.05 178.35 72.05 178.87C72.05 180.34 72.09 181.72 72.35 182.95C72.58 184.14 72.62 185.19 72.62 186.15C72.62 186.89 72.58 187.57 72.58 188.22C72.58 188.54 72.58 188.8 72.62 189.17C73.02 191.01 72.31 190.39 74.64 190.75C74.9 190.8 75.19 190.61 75.76 190.45C75.33 189.63 74.98 188.81 74.9 188.09C74.92 187.68 75.02 187.46 75.09 187.31C75.44 186.62 76.28 186.33 76.97 186.69C77.55 186.97 77.84 187.61 77.72 188.21C77.83 188.49 78.28 189.23 78.81 190.13C79.15 189.35 79.82 188.66 80.96 188.34C81.36 188.24 81.79 188.34 82.12 188.6C82.45 188.87 82.65 189.24 82.66 189.66C82.67 189.95 82.71 190.46 82.72 191.02C82.97 190.98 83.17 190.93 83.45 190.92C83.73 190.91 83.96 190.91 84.17 190.91C85.34 190.89 85.74 191.15 86.88 191.48C87.2 191.56 87.42 191.6 87.65 191.65C87.57 191.6 87.52 191.49 87.43 191.46C86.72 191.16 86.39 190.34 86.69 189.63C86.99 188.91 87.81 188.57 88.52 188.87C88.9 189.05 89.23 189.24 89.53 189.46C89.67 189.24 89.87 189.07 90.11 188.96C90.58 188.75 91.13 188.83 91.53 189.13C91.57 189.11 91.61 189.1 91.65 189.09C92.22 188.94 92.79 189.23 93.11 189.72C93.76 189.56 94.42 189.41 94.99 189.29C94.85 189.2 94.69 189.1 94.54 189C93.47 188.32 92.48 187.84 91.77 187.2C89.79 185.32 88.81 183.4 88.82 181.46C88.89 178.24 91.06 175.93 92.67 173.17C93.91 171.11 95.37 168.59 95.71 166.62C95.76 166.27 95.8 165.88 95.8 165.44C95.8 164.38 95.61 163.17 95.61 161.82C95.61 161.34 95.61 160.78 95.74 160.26C95.85 159.74 96.04 159.3 96.22 158.84L96.22 158.75C96.22 158.57 96.35 158.45 96.41 158.3C96.45 158.21 96.48 158.11 96.52 158.02C96.58 157.93 96.6 157.82 96.69 157.74C98.89 153.49 103.22 151.9 102.93 148.19C102.93 147.97 102.92 147.74 102.9 147.49C102.84 146.73 103.4 146.05 104.19 145.99C104.96 145.93 105.64 146.51 105.69 147.28C105.71 147.57 105.72 147.87 105.72 148.19C105.58 151.1 104.29 153.04 102.86 154.65C102.96 154.62 103.02 154.57 103.14 154.54C103.29 154.53 103.42 154.61 103.58 154.65C103.6 154.61 103.61 154.56 103.64 154.52L103.65 154.52C104.03 153.94 104.79 153.75 105.42 154.05C105.42 154.04 105.42 154.03 105.43 154.03C105.79 153.53 106.42 153.35 107 153.55C107.28 153.65 107.51 153.83 107.67 154.06C108.13 153.76 108.65 153.53 109.24 153.42C109.31 153.42 109.63 153.42 109.8 153.49C110.67 153.7 111.19 154.26 111.47 154.88C112.04 153.77 112.69 152.59 113.61 151.51C113.97 151.1 114.54 150.96 115.08 151.12C115.6 151.29 115.97 151.74 116.04 152.29C116.08 152.67 116.09 153 116.09 153.3L116.09 153.35C116.1 153.36 116.11 153.36 116.12 153.37C116.22 152.77 116.61 152.25 117.25 152.17C118.01 152.09 118.71 152.64 118.8 153.4C118.83 153.66 118.83 153.9 118.83 154.12C118.77 155.34 118.44 156.36 118.06 157.3L118.06 157.34C118.11 157.81 117.88 158.2 117.56 158.5C117.03 159.62 116.56 160.58 116.62 161.49C116.62 161.82 116.67 162.11 116.8 162.52C117.11 163.67 118.42 165.27 119.2 167.14C120.09 169.33 120.78 170.7 122.48 172.09C124.87 174.02 128.02 175.65 130.9 176.66C132.44 177.25 135.31 177.12 137.4 178.28C137.88 178.56 138.15 179.12 138.06 179.69C137.97 180.23 137.57 180.69 137.02 180.83C132.28 182.06 128.06 182.17 123.65 182.17C122.32 182.17 121 182.14 119.65 182.14L119.62 182.14L119.61 181.57L119.38 182.17C117.9 182.17 115.32 182.21 113.25 182.71C111.07 183.26 110.07 184.04 110.15 184.98C110.15 185.09 110.15 185.22 110.17 185.35C110.51 185.36 110.86 185.5 111.11 185.76C111.18 185.83 111.24 185.91 111.3 185.99C111.63 186.03 111.96 186.07 112.33 186.07C112.58 186.07 112.79 186.07 112.98 186.05L112.98 186.06C113.01 186.06 113.04 186.05 113.06 186.05C113.83 186.02 114.47 186.6 114.51 187.35C114.57 188.11 114 188.76 113.25 188.84C113.05 188.86 112.86 188.87 112.69 188.87C112.65 188.88 112.6 188.93 112.56 188.94C112.51 189 112.54 189.09 112.49 189.14C112.35 189.28 112.19 189.4 112.01 189.48C112.1 189.52 112.26 189.6 112.54 189.72C113.23 189.95 114.41 190.07 115.65 190.07C116.02 190.07 116.39 190.04 116.76 190.03C116.71 189.96 116.63 189.91 116.6 189.82C116.57 189.78 116.53 189.74 116.51 189.7C116.17 189.22 116.17 188.6 116.49 188.12C116.53 188.07 116.56 188.02 116.6 187.97C116.77 186.53 116.97 185.2 118.88 184.33L118.89 184.33C119.35 184.24 119.8 184.4 120.11 184.7C120.19 184.57 120.27 184.42 120.35 184.29C120.35 184.29 120.35 184.28 120.35 184.27C120.38 184.23 120.4 184.19 120.42 184.14C120.78 183.49 121.6 183.25 122.26 183.58C122.94 183.91 123.22 184.71 122.93 185.4C122.88 185.49 122.84 185.57 122.8 185.67C122.84 185.68 122.87 185.7 122.92 185.73C123.52 186.04 123.81 186.76 123.59 187.41C123.38 188.07 122.71 188.47 122.03 188.35C121.85 188.33 121.66 188.3 121.53 188.3L121.51 188.3C121.26 188.61 120.95 188.91 120.55 189.17C120.35 189.39 120.07 189.61 119.78 189.83C120.33 189.79 120.8 189.76 121.11 189.76C128.05 189.76 135.23 189.85 142.06 190.76C143.34 190.9 145.34 191.13 147.42 191.13C151.18 191.2 154.89 190.24 155.46 188.53C155.57 188.24 155.59 188.07 155.59 188.02C155.85 187.55 154.14 186.48 153.39 184.13C153.26 183.68 153.22 183.28 153.22 182.9ZM118.97 179.42C119.27 179.34 119.45 179.34 119.62 179.34C121.01 179.34 122.35 179.36 123.65 179.36C125.72 179.36 127.68 179.34 129.65 179.19C126.58 178.07 123.35 176.39 120.72 174.27C118.52 172.5 117.49 170.45 116.6 168.16C116.11 166.89 114.75 165.3 114.12 163.37C113.9 162.72 113.83 162.07 113.83 161.49C113.85 161.12 113.96 160.81 114.02 160.46C113.86 160.5 113.72 160.62 113.56 160.61C113.18 160.58 112.84 160.41 112.6 160.12C112.39 159.87 112.28 159.56 112.28 159.24C111.75 159.98 111.12 160.68 110.32 161.3C109.83 161.67 109.15 161.67 108.65 161.29C108.16 160.91 107.96 160.26 108.17 159.68C108.41 159.1 108.96 157.48 108.97 156.55C108.95 156.57 108.92 156.6 108.9 156.63C108.57 157.04 108.17 157.74 107.8 158.5C107.02 160.07 106.47 161.72 105.68 162.79C105.34 163.21 104.79 163.41 104.26 163.28C104.1 163.25 103.96 163.19 103.83 163.1C103.63 163.24 103.4 163.32 103.14 163.34L103.05 163.34C102.36 163.34 101.75 162.84 101.66 162.13C101.61 161.76 101.61 161.45 101.61 161.22C101.61 160.53 101.79 159.87 101.92 159.19C101.78 159.37 101.66 159.49 101.53 159.69C100.92 160.51 100.35 161.52 99.99 162.24C100.07 162.73 99.88 163.25 99.47 163.57C99.28 163.95 98.92 164.16 98.53 164.26C98.56 164.67 98.59 165 98.59 165.44C98.59 165.97 98.57 166.51 98.47 167.1C97.95 169.87 96.32 172.52 95.07 174.61C93.23 177.58 91.54 179.81 91.61 181.46C91.63 182.45 92.03 183.56 93.72 185.19C93.82 185.56 95.26 186.06 96.6 187C97.2 186.82 97.8 186.73 98.39 186.73C99.46 186.73 100.5 186.86 101.36 186.86C101.72 186.86 102.06 186.85 102.28 186.82C103.47 186.61 104.91 185.63 106.91 185.57C107.07 185.57 107.24 185.62 107.4 185.64C107.37 185.42 107.33 185.2 107.33 184.98C108.1 178.8 116.48 179.61 118.97 179.42ZM46.27 56.43C46.5 57.08 46.79 57.69 47.04 58.34C47.86 60.38 48.79 62.34 50.18 63.85C51.7 65.54 53.94 66.55 56.23 67.89C56.19 67.48 56.16 67.06 56.15 66.65C56.14 66.38 56.11 66.1 56.11 65.83C56.11 63.85 56.35 61.88 56.4 60.73C56.67 55.52 59.24 50.93 60.15 46.53C60.16 46.47 60.15 46.42 60.17 46.37C59.66 46.31 59.26 46 59.05 45.53C57.72 46.53 56.3 47.33 54.42 47.33L54.38 47.33C53.78 47.33 53.15 47.26 52.47 47.11C50.66 46.66 48.11 45.65 46.8 43.49C46.59 43.82 46.3 44.03 45.91 44.1C45.6 45.68 44.91 47.11 43.82 48.3C43.82 48.35 43.86 48.39 43.85 48.44C43.84 48.59 43.83 48.72 43.83 48.8C43.79 50.72 45.43 54.1 46.27 56.43ZM45.91 40.03C47.31 38.78 48.96 37.69 51.23 37.55C50.96 37.41 50.71 37.21 50.58 36.91C50.27 36.19 50.6 35.37 51.33 35.07C51.72 34.91 52.11 34.85 52.46 34.85C52.59 34.85 52.71 34.87 52.83 34.88C52.91 34.68 53.04 34.5 53.21 34.34C53.57 34.02 54.06 33.92 54.51 34.05C54.58 33.85 54.68 33.68 54.84 33.52C55.25 33.07 55.9 32.94 56.45 33.2C56.64 33.29 56.86 33.41 57.07 33.5C55.41 31.16 53.3 28.68 52.51 25.32C52.41 24.85 52.56 24.36 52.9 24.02C53.23 23.68 53.72 23.54 54.2 23.65C54.62 23.76 55.01 23.89 55.36 24.04C55.33 23.4 55.31 22.74 55.31 22.06C55.31 20.88 55.4 19.64 55.77 18.41C55.98 17.74 56.62 17.34 57.31 17.44C57.92 17.55 58.46 17.74 58.93 17.98C58.97 17.5 59.26 17.06 59.7 16.84C60.13 16.65 60.37 16.66 60.47 16.68L60.54 16.68C61.63 16.74 62.44 17.16 63.06 17.59C63.2 17.45 63.37 17.33 63.57 17.26C64.08 17.08 64.63 17.2 65.01 17.57C65.67 18.23 66.08 18.87 66.42 19.44C67.11 19.42 67.73 19.87 67.84 20.58C68.95 28.35 70.5 36.32 74.3 43.16C75.98 46.34 79.3 50.39 82.15 50.29L82.15 50.28C82.22 50.27 82.31 50.28 82.39 50.28C85.56 50.2 88.46 47.97 90.96 45.48C90.88 42.67 89.68 39.96 88.88 37.13C88.75 37.09 88.59 37.14 88.46 37.06C88.03 36.76 87.26 36.36 86.4 35.95C86.11 37.63 85.44 39.77 83.13 40.93C82.38 41.25 81.57 41.38 80.75 41.38C79.39 41.35 78.08 40.93 76.9 40.3C76.83 40.53 76.77 40.75 76.7 40.98L76.72 40.98C76.53 41.58 75.97 41.97 75.37 41.97C75.23 41.97 75.09 41.95 74.96 41.9C74.2 41.68 73.8 40.88 74.03 40.15C74.4 39.05 74.72 37.52 75.31 36.06C75.32 35.88 75.26 35.7 75.33 35.53C75.41 35.37 75.57 35.31 75.69 35.19C75.86 34.85 76.07 34.53 76.29 34.22C76.16 34.24 76.04 34.3 75.91 34.28C75.86 34.28 75.81 34.28 75.74 34.28C75.54 34.3 75.36 34.26 75.2 34.18C75.02 34.25 74.83 34.29 74.65 34.29C74.4 34.29 74.15 34.22 73.92 34.09C73.87 34.06 73.83 34.02 73.79 33.99C73.51 34.08 73.2 34.07 72.91 33.97C72.18 33.71 71.8 32.9 72.08 32.17C72.92 29.84 74.75 28.01 76.82 26.82C77.43 26.47 78.19 26.61 78.63 27.16C79.06 27.69 79.03 28.47 78.55 28.98C78.44 29.11 78.32 29.24 78.2 29.37C78.5 29.77 78.56 30.32 78.34 30.79C78.05 31.39 77.71 31.91 77.41 32.37C77.48 32.56 77.38 32.76 77.37 32.96C78.18 32.25 79.2 31.71 80.57 31.5C80.74 31.47 80.95 31.46 81.17 31.46C81.65 31.46 82.17 31.59 82.68 31.7C81.19 29.78 80.04 27.58 79.47 26.16C78.99 24.73 78.87 23.26 78.87 21.84C78.87 20.34 78.99 18.87 78.99 17.48C78.99 16.87 78.96 16.27 78.92 15.73C78.89 15.51 78.81 15.31 78.76 15.1C72.69 15.45 65.84 15.35 60.1 16.64C56.57 17.39 51.79 18.49 49.76 20.78C48.98 21.54 48.88 22.84 47.6 24.56C45.61 26.95 44.23 27.38 44.13 29.53L44.14 29.54C44.11 29.9 43.94 30.2 43.7 30.44C44.52 33.59 45.36 36.75 45.91 40.03ZM54 40.91C54.13 41.01 54.26 41.12 54.34 41.25C54.39 41.24 54.44 41.23 54.49 41.21C54.48 41.18 54.51 41.16 54.51 41.12C54.32 41.01 54.18 40.99 54 40.91ZM49.43 41.17C49.43 41.08 49.44 40.99 49.45 40.9C49.24 41.01 49.01 41.19 48.8 41.34L48.8 41.35C48.8 41.83 49.27 42.36 49.89 42.86C49.6 42.32 49.43 41.73 49.43 41.17ZM44.31 21.87C43.34 22.02 43.4 21.76 42.77 23.02C42.7 23.2 42.62 23.72 42.62 24.32C42.62 24.75 42.68 25.26 42.74 25.75C43.63 24.58 44.72 23.75 45.41 22.82C45.63 22.58 45.79 22.28 45.94 21.95C45.31 21.93 44.7 21.87 44.31 21.87ZM43.38 42.33C43.38 41.98 43.35 41.62 43.31 41.28C42.72 37.24 41.49 33.28 40.45 29.05C40.15 27.92 39.82 26.06 39.82 24.32C39.83 23.5 39.89 22.74 40.16 22.02C40.84 19.81 42.93 18.94 44.31 19.07C44.61 19.07 44.9 19.09 45.18 19.11C44.58 18.85 44.02 18.74 43.46 18.74C43.4 18.74 43.33 18.74 43.27 18.74C39.57 18.74 34.91 24.32 30.84 27.2C27.36 29.4 23.65 30.74 23.79 33.91C23.79 34.07 23.81 34.27 23.82 34.46C24.08 37.21 26.55 41.36 28.66 43.57C30.66 45.77 34.77 48.48 37.64 48.4C38.01 48.4 38.37 48.37 38.68 48.31C41.76 47.51 43.34 45.17 43.38 42.33ZM72.99 11.06C72.99 11.47 73.01 12.02 73.03 12.57C74.61 12.51 76.12 12.43 77.61 12.36C76.85 11.3 75.81 10.32 74.5 9.27C74.23 9.05 74.06 8.75 74 8.43C73.89 8.52 73.79 8.6 73.7 8.71C73.11 9.36 73.02 9.92 72.99 11.06ZM77 7.69C78.57 9.02 79.93 10.53 80.81 12.42C81.28 12.62 81.67 12.97 81.71 13.51C81.73 13.83 81.59 14.09 81.44 14.33C81.53 14.71 81.66 15.06 81.71 15.47C81.76 16.12 81.79 16.8 81.79 17.48C81.79 19.01 81.67 20.48 81.67 21.84C81.67 23.11 81.79 24.26 82.12 25.28C82.48 26.92 86.32 32.36 87.22 32.27C87.44 32.31 87.64 32.33 87.82 32.33C89.99 32.5 94.49 28.84 95.82 26.92C97.78 24.36 100.52 19.86 100.47 16.86C100.47 16.61 100.45 16.41 100.44 16.27C100.42 14.06 94.39 10.71 91.41 10.77C91.36 10.78 91.31 10.79 91.25 10.78L91.19 10.8C90.13 10.8 89.11 10.95 87.97 10.95C86.8 10.95 85.5 10.78 84.17 10.1C81.97 8.92 81.13 8 79.15 7.82C78.47 7.74 77.76 7.69 77.07 7.69L77 7.69ZM90.65 49.52C90.16 49.94 89.63 50.31 89.09 50.68C87.14 52.02 84.92 53.04 82.31 53.09L82.27 53.08L82.21 53.09C79.31 53 77.01 51.32 75.2 49.29C74.11 48.09 73.2 46.77 72.46 45.55C72.25 45.2 72.03 44.85 71.84 44.52C68.04 37.64 66.43 29.95 65.32 22.56C65.29 22.53 65.24 22.54 65.21 22.51C64.76 22.04 64.42 21.54 64.13 21.1C63.76 21.22 63.35 21.18 63.01 21C62.52 20.67 62.15 20.39 61.78 20.14C61.68 20.07 61.54 19.97 61.45 19.91C61.4 20.07 61.37 20.19 61.39 20.28C61.39 20.33 61.33 20.35 61.32 20.41C61.27 20.85 61.08 21.27 60.69 21.49C60.25 21.74 59.72 21.74 59.29 21.48C58.88 21.22 58.5 20.98 58.16 20.77C58.13 21.18 58.11 21.62 58.11 22.06C58.11 23.19 58.2 24.4 58.2 25.62L58.2 26.11C58.23 26.58 58.03 27.05 57.65 27.32C57.28 27.6 56.82 27.67 56.39 27.54C57.65 29.75 59.59 31.91 60.98 34.54C62.44 37.39 63.31 40.2 63.31 43.27C63.31 44.49 63.17 45.76 62.89 47.09C61.8 52.06 59.37 56.53 59.2 60.86C59.19 60.99 59.17 61.18 59.16 61.33C59.65 60.92 60.34 60.79 60.87 61.19C61.48 61.66 61.61 62.54 61.16 63.16C60.4 64.14 59.83 66.13 59.85 68.18C59.85 68.87 60 69.5 60.11 70.15C60.63 70.56 60.8 71.23 60.52 71.83C60.62 72.12 60.77 72.36 60.9 72.62C61.09 72.57 61.28 72.5 61.49 72.5C61.57 72.5 61.91 72.49 62.3 72.64C62.81 72.86 63.13 73.34 63.17 73.87C64.75 75.16 65.61 76.1 67.28 76.07C67.41 76.07 67.53 76.07 67.6 76.05C69.43 75.95 71.19 75.25 72.02 74.23C72.08 74.17 72.12 74.12 72.17 74.06C72.33 73.83 72.36 73.57 72.4 73.31C69.05 73.21 64.58 72.23 63.39 67.91C63.19 67.2 63.11 66.53 63.11 65.93C63.13 61.72 66.91 59.4 70.66 59.38C70.99 59.38 71.29 59.41 71.53 59.43C75.23 59.66 79.54 61.28 79.56 65.94C79.56 66.35 79.54 66.76 79.47 67.24C79.43 67.72 79.28 68.08 79.17 68.49C79.2 68.81 79.24 69.12 79.25 69.47C79.25 70.16 78.74 70.67 78.08 70.8C77.83 71.11 77.54 71.37 77.24 71.6C77.89 71.87 78.44 72.1 78.97 72.06L79.22 72.06C79.92 72.1 82.83 70.08 83.4 69.61C83.41 69.6 83.42 69.6 83.43 69.59C83.44 69.58 83.46 69.56 83.48 69.55C83.49 69.55 83.49 69.54 83.49 69.54C83.5 69.54 83.52 69.52 83.54 69.51C83.54 69.49 83.57 69.47 83.69 69.43C83.73 69.41 83.78 69.42 83.83 69.41C83.98 68.34 84.19 67.3 84.59 66.32C84.13 62.41 83.29 59.85 80.73 56.8C80.22 56.21 80.29 55.33 80.89 54.82C81.47 54.32 82.36 54.39 82.86 54.99C84.88 57.33 85.99 59.68 86.67 62.26C87.61 60.66 88.53 59.14 88.93 57.71C89.7 55.22 90.22 52.75 90.58 50.26C90.61 50.02 90.63 49.77 90.65 49.52ZM62.47 78.46L62.49 78.42C60.53 77.73 59.26 75.63 58.25 73.86C58.22 73.83 58.21 73.8 58.19 73.77C57.48 72.53 56.88 71.46 56.26 71.2C53.94 69.52 50.69 68.48 48.12 65.74C47.09 64.62 46.32 63.35 45.65 62.07C45.79 64.52 46.25 67.05 46.59 69.84C46.73 71.16 46.64 71.43 46.96 72.13C46.73 72.44 48.24 72.5 48.48 74.87C50.37 76.65 53.99 78.55 56.66 79.53C57.04 79.63 57.42 79.74 57.71 79.82C57.89 79.87 58.04 79.95 58.22 80.01C58.29 80.02 58.36 80.05 58.42 80.07C61.11 80.78 63.46 81.29 65.73 81.29C66.09 81.29 66.45 81.22 66.8 81.2C65.4 80.25 64.09 79.33 62.93 78.55C62.78 78.55 62.62 78.53 62.47 78.46ZM70.32 68.98C69.94 68.63 69.36 68.39 69.22 68.4C69.14 68.39 69.07 68.39 69.04 68.39C68.12 68.44 68.07 68.74 68.06 68.92C68.06 68.96 68.07 69.02 68.09 69.08C68.72 69.03 69.26 69.45 69.47 70.06C69.6 70.09 69.71 70.16 69.85 70.19C69.86 70.19 69.88 70.19 69.9 70.19C70.05 69.82 70.32 69.52 70.71 69.39C70.65 69.28 70.53 69.14 70.32 68.98ZM75.38 80.69C74.73 80.85 74.07 80.9 73.42 80.9C73.14 80.9 72.88 80.81 72.6 80.78C72.68 80.89 72.73 81.05 72.79 81.2C73.65 81.5 74.49 81.73 75.29 81.71C76.05 81.71 76.8 81.55 77.6 81.2C79.32 80.47 80.36 78.76 81.25 76.72M59.26 37.72L59.24 37.76C58.95 38.31 58.34 38.61 57.74 38.5C57.71 38.49 57.69 38.49 57.67 38.49C57.6 38.8 57.48 39.12 57.32 39.42C57.29 39.47 57.23 39.5 57.2 39.55C58.38 40.32 59.53 41.21 60.37 42.31C60.26 40.77 59.87 39.25 59.26 37.72ZM130.92 123.5C131.03 123.96 131.15 124.51 131.22 124.86C131.87 128.65 131.78 132.48 133.97 134.58C135.78 136.82 139.58 136.25 143.3 137.16C142.63 136.38 142.02 135.56 141.19 134.82C138.52 132.37 135.65 130.27 133.31 127C132.49 125.85 131.71 124.68 130.92 123.5ZM67.76 187.22C67.71 187.37 67.65 187.55 67.59 187.72C67.9 187.7 68.23 187.7 68.57 187.7C68.97 187.7 69.37 187.72 69.78 187.76C69.79 187.19 69.82 186.64 69.82 186.15C69.82 185.25 69.79 184.42 69.6 183.53C69.54 183.2 69.52 182.88 69.47 182.55C68.74 182.65 67.08 183.51 66.32 184.11C66.26 184.14 66.21 184.18 66.15 184.22C66.31 184.36 66.43 184.55 66.51 184.76C66.59 184.95 66.62 185.15 66.61 185.34M184.87 188.14C182.08 187.75 178.56 187.4 176.73 186.85C173.65 185.62 171.07 183.82 168.38 182.96C166.55 182.29 163.91 182.51 161.31 181.21C159.3 180.08 158.22 178.24 157.24 176.73C157.28 176.84 157.38 176.93 157.38 177.06L157.38 177.34C157.29 179.93 155.92 181.63 156.03 182.9C156.03 183.09 156.05 183.22 156.11 183.45C156.04 184.21 157.84 185.2 158.28 187.59C158.64 187.57 159.01 187.52 159.36 187.52C161.01 187.52 162.6 187.78 163.79 187.76C163.94 187.76 164.02 187.78 164 187.78C165.55 187.73 167.05 187.3 168.9 187.17C169.47 187.08 170.02 187.08 170.51 187.08C173.75 187.08 176.91 187.75 179.79 188.04C180.78 188.13 181.91 188.2 183.04 188.2C183.65 188.2 184.26 188.18 184.87 188.14ZM164 187.78C164 187.78 164 187.78 164 187.78C164 187.78 164 187.78 164 187.78Z" /></svg>