<?xml version="1.0" standalone="no"?>
<!DOCTYPE svg PUBLIC "-//W3C//DTD SVG 20010904//EN"
 "http://www.w3.org/TR/2001/REC-SVG-20010904/DTD/svg10.dtd">
<svg version="1.0" xmlns="http://www.w3.org/2000/svg"
 width="200.000000pt" height="200.000000pt" viewBox="0 0 200.000000 200.000000"
 preserveAspectRatio="xMidYMid meet">
<metadata>
Created by potrace 1.11, written by Peter Selinger 2001-2013
</metadata>
<g transform="translate(0.000000,200.000000) scale(0.100000,-0.100000)"
fill="#000000" stroke="none">
<path d="M720 1930 c-11 -11 -20 -28 -20 -39 0 -15 -10 -19 -57 -24 -32 -3
-78 -13 -103 -22 -25 -9 -52 -16 -60 -15 -73 8 -90 3 -137 -36 -26 -22 -62
-49 -80 -59 -36 -21 -58 -64 -50 -97 19 -73 102 -148 166 -148 39 0 50 -20 50
-93 0 -31 5 -82 11 -113 l12 -55 -44 -71 c-24 -40 -53 -89 -65 -109 -40 -68
-55 -137 -58 -274 -3 -116 0 -172 19 -310 3 -22 8 -70 12 -107 5 -65 4 -69
-23 -96 -15 -16 -60 -47 -99 -69 -78 -46 -120 -101 -96 -125 11 -11 16 -9 27
6 14 18 15 18 34 -5 18 -23 20 -23 38 -6 22 19 53 23 53 6 0 -15 77 -3 107 16
12 8 25 25 29 37 4 13 19 39 34 58 38 47 45 77 56 215 4 44 12 122 18 173 l11
93 38 -60 c49 -77 98 -126 150 -152 53 -27 52 -26 40 -41 -20 -25 -40 -108
-42 -173 -1 -22 -9 -34 -30 -46 -28 -16 -65 -74 -56 -89 2 -4 24 -6 47 -6 26
1 47 -3 53 -11 6 -8 22 -14 35 -15 14 -1 33 -8 42 -16 14 -12 21 -12 32 -3 9
8 32 10 65 6 41 -4 53 -2 57 10 3 8 14 15 24 15 10 0 20 4 22 8 2 5 17 12 34
15 26 5 33 3 37 -14 4 -16 9 -19 24 -11 11 6 25 7 34 1 9 -5 54 -8 100 -7 46
0 135 -2 197 -5 99 -6 118 -4 148 12 30 17 53 18 183 15 112 -2 153 0 167 10
17 13 16 15 -14 30 -17 9 -46 16 -64 16 -18 0 -57 11 -86 25 -28 13 -68 27
-87 31 -28 5 -42 18 -80 73 -45 67 -48 76 -59 207 -6 78 -40 144 -104 206 -31
30 -88 102 -127 159 -79 118 -162 207 -222 237 -62 32 -100 68 -138 133 -43
74 -48 102 -29 148 41 94 50 168 30 235 -14 47 -14 50 5 64 53 37 99 111 99
160 0 49 -63 92 -138 92 -20 0 -46 7 -56 15 -29 22 -92 19 -116 -5z m117 -28
c12 -7 39 -12 60 -12 54 0 103 -32 103 -67 -1 -32 -43 -97 -81 -126 -54 -40
-99 11 -99 112 0 34 -3 61 -7 61 -5 0 -13 11 -19 25 -10 21 -10 24 5 22 9 -2
26 -8 38 -15z m-67 -16 c0 -2 -9 -6 -20 -9 -15 -4 -20 0 -20 14 0 17 3 18 20
9 11 -6 20 -12 20 -14z m20 -88 c1 -29 7 -64 15 -78 19 -33 19 -35 -5 -37 -16
-1 -19 3 -14 23 8 30 -13 32 -44 4 -27 -26 -28 -50 -3 -50 17 0 18 -3 8 -36
-11 -35 -11 -35 -23 -12 -6 13 -19 57 -29 98 -20 90 -25 102 -55 117 -22 11
-21 12 16 15 21 2 60 4 87 6 l47 3 0 -53z m-212 25 c-10 -2 -21 -17 -25 -31
-3 -15 -13 -32 -20 -37 -12 -9 -10 -17 10 -46 l25 -36 -35 -17 c-19 -9 -31
-21 -28 -26 3 -6 -3 -10 -14 -10 -12 0 -21 -6 -21 -12 -1 -22 -17 15 -24 53
-6 35 8 89 24 89 4 0 12 11 18 25 11 24 62 54 92 53 10 0 9 -2 -2 -5z m-162
-29 c-20 -20 -20 -52 2 -140 24 -96 11 -133 -48 -134 -48 0 -130 90 -130 144
0 8 39 45 88 81 82 61 122 84 88 49z m237 -28 c-4 -14 28 -129 51 -179 13 -30
39 -69 57 -87 29 -28 39 -31 72 -27 21 3 47 13 57 22 18 16 18 15 6 -40 -14
-59 -26 -79 -33 -57 -3 7 -16 25 -29 40 -20 23 -23 24 -24 9 0 -10 5 -28 11
-39 28 -52 29 -79 4 -104 -31 -31 -47 -31 -37 -1 9 25 9 33 -2 64 -8 24 -22
31 -75 37 -39 4 -81 -28 -81 -62 0 -30 38 -72 66 -72 31 0 31 -18 0 -26 -32
-8 -85 23 -93 55 -3 14 -1 37 5 53 8 23 8 30 -2 34 -14 5 -12 21 14 109 19 63
8 135 -28 189 -18 26 -28 44 -22 41 6 -4 10 8 10 29 0 27 3 34 15 30 8 -4 15
-1 15 6 0 9 6 8 23 -2 12 -9 21 -18 20 -22z m-203 5 c0 -6 -4 -13 -10 -16 -5
-3 -10 1 -10 9 0 9 5 16 10 16 6 0 10 -4 10 -9z m450 -183 c10 -36 9 -42 -11
-59 -47 -41 -92 -37 -128 11 -22 30 -22 32 -5 45 11 8 25 10 34 5 21 -11 61 6
67 29 8 30 32 14 43 -31z m-300 12 c0 -5 -7 -7 -15 -4 -8 4 -15 8 -15 10 0 2
7 4 15 4 8 0 15 -4 15 -10z m-117 -52 c2 -9 24 -13 60 -12 32 0 57 -2 57 -5 0
-4 -7 -25 -15 -49 -13 -36 -22 -90 -24 -139 -2 -45 -71 25 -100 101 -18 50
-20 64 -10 88 12 30 25 36 32 16z m96 -289 c25 -25 55 -52 66 -58 34 -21 -59
-4 -108 19 -50 24 -65 45 -74 105 l-6 45 38 -33 c21 -17 59 -53 84 -78z m126
51 c3 -5 1 -10 -4 -10 -6 0 -11 5 -11 10 0 6 2 10 4 10 3 0 8 -4 11 -10z m257
-191 c13 -11 53 -37 89 -59 121 -72 210 -196 234 -326 17 -92 39 -118 107
-129 24 -4 50 -11 59 -16 21 -11 37 -75 42 -164 5 -80 10 -97 44 -143 17 -23
22 -37 15 -45 -16 -19 -25 -84 -13 -91 6 -4 11 -15 11 -26 0 -27 -39 -32 -164
-24 -61 4 -126 7 -143 7 -33 -1 -46 13 -19 19 10 2 11 9 5 27 -8 20 -11 22
-26 10 -9 -8 -19 -13 -22 -11 -7 5 -20 -31 -14 -40 2 -5 -6 -8 -18 -8 -18 0
-19 2 -9 15 10 12 7 16 -16 25 -48 19 -12 32 100 36 155 6 203 31 106 54 -66
16 -121 57 -144 109 -17 36 -18 46 -7 82 9 30 9 45 2 52 -6 6 -11 7 -11 1 0
-5 -4 -3 -9 5 -8 13 -12 13 -27 0 -9 -8 -34 -15 -55 -15 -36 -2 -37 -1 -28 24
11 28 6 52 -11 52 -5 0 -10 -9 -10 -19 0 -11 -16 -38 -35 -61 -19 -23 -35 -49
-36 -58 -4 -65 -6 -80 -16 -102 -7 -14 -21 -38 -32 -55 -28 -40 -26 -77 4
-113 l24 -29 -25 5 c-14 2 -37 -1 -51 -9 -21 -12 -26 -11 -34 3 -5 10 -17 14
-29 11 -11 -3 -20 0 -20 6 0 6 -7 11 -15 11 -8 0 -15 -9 -15 -20 0 -11 -4 -20
-10 -20 -12 0 -12 -5 -15 108 -4 114 9 165 62 229 22 26 43 57 47 68 17 48 25
116 16 140 -16 42 -28 28 -27 -32 1 -58 -32 -153 -54 -153 -18 0 -94 40 -120
62 -14 13 -49 57 -78 99 -38 56 -51 85 -49 104 2 16 -2 30 -10 32 -20 7 -39
-54 -46 -147 -21 -272 -34 -348 -70 -405 -17 -27 -37 -59 -43 -70 -7 -13 -19
-19 -34 -17 -13 2 -40 4 -59 5 -19 2 -43 6 -53 11 -10 5 -23 4 -31 -3 -11 -9
-16 -9 -22 0 -4 7 -3 14 2 16 34 13 151 93 168 116 26 35 27 83 5 239 -21 155
-19 390 4 462 19 59 125 236 141 236 6 0 38 -14 71 -32 46 -24 76 -32 130 -35
l70 -4 43 41 c23 23 49 58 58 78 l15 36 39 -68 c22 -37 50 -76 62 -87z m-158
98 c-5 -13 -44 -41 -44 -31 0 5 41 43 47 44 1 0 0 -6 -3 -13z m-59 -35 c-3 -3
-11 0 -18 7 -9 10 -8 11 6 5 10 -3 15 -9 12 -12z m672 -549 c-8 -7 -75 16 -84
29 -3 7 -9 28 -13 49 l-7 38 54 -55 c31 -30 53 -58 50 -61z m-332 -223 c-11
-18 5 -32 21 -19 18 14 26 7 44 -41 22 -57 42 -82 89 -112 l45 -28 -50 -1
c-105 -1 -148 -14 -159 -48 -8 -25 -85 -39 -120 -23 -39 18 -41 54 -6 115 17
30 32 62 34 73 5 27 25 74 32 74 3 0 4 -6 3 -12 -2 -7 6 -14 18 -16 14 -2 24
5 32 23 6 14 14 25 17 25 4 0 3 -4 0 -10z m572 -235 c21 -4 51 -14 68 -23 16
-8 44 -18 60 -22 17 -3 -23 -6 -87 -6 -112 1 -117 2 -128 24 -5 13 -7 34 -4
47 6 25 6 25 30 6 13 -10 41 -22 61 -26z m-961 -30 c0 -30 -11 -32 -26 -6 -7
14 -6 21 3 24 21 9 23 8 23 -18z"/>
</g>
</svg>
